<svg width="123" height="2066" viewBox="0 0 123 2066" fill="none" xmlns="http://www.w3.org/2000/svg">
<g clip-path="url(#clip0_2_20)">
<path d="M98.48 105.69L98.48 86.8501H71.5301L24.8701 0.359985L24.8701 24.1901L60.6701 89.54C62.3301 92.94 63.5701 94.76 64.9201 95.67V96.1201C63.5701 97.0301 62.3301 99.1201 60.6701 102.25L24.9001 166.95L24.9001 190.56L71.5301 105.69H98.48ZM24.8701 197.59L24.8701 371.02H32.1301L32.1301 293.61H98.48V275H32.1301V197.59H24.8701ZM98.48 396.44H24.8701L24.8701 415.05H98.48V396.44ZM32.1301 597.56V514.69C32.1301 484.96 38.97 475.69 46.0201 475.69C53.2801 475.69 60.5401 485.69 60.5401 514.96V597.59L32.1301 597.56ZM98.48 473.16V450.01L66.6701 499.49C64.4901 467.94 54.8401 456.36 46.1301 456.36C35.9701 456.36 24.8801 469.53 24.8801 511.98L24.8801 616.4H98.48V597.56H67.7901V520.56L98.48 473.16ZM24.8701 837.27H65.2001C85.9401 837.27 101.08 805.94 101.08 748.74C101.08 692.21 85.9401 660.44 65.2001 660.44H24.8701V679.28H65.0001C81.0001 679.28 93.8201 704.7 93.8201 748.74C93.8201 793.23 80.9601 818.65 65.0001 818.65H24.8701L24.8701 837.27ZM101.08 959.39C101.08 910.13 92.1601 877.39 75.5701 864.05L74.2201 882.89C87.0801 893.56 93.9201 919.21 93.9201 958.26C93.9201 1008.88 80.8601 1042.47 61.5701 1042.47C41.8801 1042.47 29.4301 1010.47 29.4301 959.17C29.4301 918.99 37.1101 891.97 50.7901 883.57L49.9601 863.83C32.3401 873.83 22.2801 907.64 22.2801 958.03C22.2801 1020.23 38.0401 1061.77 61.68 1061.77C85.32 1061.77 101.08 1022.27 101.08 959.39V959.39ZM91.23 1213.63H64.3701V1084.92H57.1201L57.1201 1213.63H32.1201L32.1201 1081.07H24.8701L24.8701 1232.25H98.48V1079.48H91.23V1213.63ZM101.08 1349.38C101.08 1296.48 93.5101 1269.25 78.5801 1269.25C66.0301 1269.25 60.1201 1286.25 58.2601 1326.68L55.9801 1376.84C54.6301 1407.71 51.3101 1418.84 43.2201 1418.84C34.2201 1418.84 29.4301 1397.95 29.4301 1360.27C29.4301 1319.19 35.43 1298.53 47.43 1290.58L45.5701 1270.58C30.1201 1280.58 22.2401 1308.49 22.2401 1359.79C22.2401 1409.95 29.9101 1438.1 43.7001 1438.1C55.4201 1438.1 61.7001 1421.3 63.3001 1384.98L65.4701 1332.98C66.8201 1300.98 70.66 1288.49 79.26 1288.49C89.32 1288.49 93.8801 1307.78 93.8801 1349.1C93.8801 1393.59 87.14 1418.56 73.66 1426.28L74.91 1446.71C92.64 1436.71 101.04 1405.85 101.04 1349.33L101.08 1349.38ZM98.44 1874.28V1849.76L68.69 1784.39C67.594 1781.96 66.3101 1779.62 64.8501 1777.39V1776.94C66.2852 1774.61 67.5614 1772.19 68.6701 1769.69L98.5201 1705.69V1679.59L60.1201 1764.24L24.8701 1685.01V1710.44L51.7201 1769C52.8103 1771.64 54.0593 1774.2 55.4601 1776.69V1777.14C54.0874 1779.58 52.8391 1782.08 51.7201 1784.64L24.8701 1843.91L24.8701 1869.34L60.43 1789.2L98.44 1874.28ZM24.8701 2065.69H65.2001C85.9401 2065.69 101.08 2034.36 101.08 1977.16C101.08 1920.64 85.9401 1888.86 65.2001 1888.86H24.8701V1907.69H65.0001C81.0001 1907.69 93.8201 1933.11 93.8201 1977.15C93.8201 2021.69 80.9601 2047.08 65.0001 2047.08H24.8701V2065.69Z" fill="white"/>
<path d="M80.3201 1562.75C80.3201 1566.44 79.2271 1570.04 77.1793 1573.1C75.1316 1576.17 72.221 1578.56 68.8156 1579.97C65.4102 1581.38 61.6628 1581.75 58.0472 1581.03C54.4317 1580.31 51.1104 1578.54 48.5031 1575.93C45.8959 1573.33 44.1198 1570.01 43.3994 1566.39C42.6791 1562.78 43.0468 1559.03 44.4561 1555.62C45.8654 1552.22 48.2529 1549.31 51.3169 1547.26C54.381 1545.21 57.9838 1544.11 61.6701 1544.11C64.1179 1544.11 66.5418 1544.59 68.8033 1545.53C71.0648 1546.47 73.1196 1547.84 74.8505 1549.57C76.5814 1551.3 77.9544 1553.36 78.8912 1555.62C79.8279 1557.88 80.3101 1560.3 80.3101 1562.75" fill="white"/>
<path d="M55.59 1501.75V1520.02H68.0201V1501.75H55.59Z" fill="white"/>
<path d="M61.68 1526.36L72.6701 1520.02H50.6901L61.68 1526.36Z" fill="white"/>
<path d="M55.3301 1605.49V1623.76H67.76V1605.49H55.3301Z" fill="white"/>
<path d="M61.68 1599.14L50.6901 1605.49H72.6701L61.68 1599.14Z" fill="white"/>
<path d="M104.41 1556.67V1569.1H122.68V1556.67H104.41Z" fill="white"/>
<path d="M98.0701 1562.75L104.41 1573.74V1551.77L98.0701 1562.75Z" fill="white"/>
<path d="M0.670052 1556.42L0.670052 1568.85H18.9401V1556.42H0.670052Z" fill="white"/>
<path d="M25.2901 1562.75L18.9401 1551.77V1573.74L25.2901 1562.75Z" fill="white"/>
<path d="M87.5845 1528.22L96.3809 1537.02L109.3 1524.1L100.503 1515.3L87.5845 1528.22Z" fill="white"/>
<path d="M87.41 1537.02L99.6701 1540.31L84.1301 1524.77L87.41 1537.02Z" fill="white"/>
<path d="M14.0499 1601.41L22.8463 1610.2L35.7652 1597.28L26.9688 1588.49L14.0499 1601.41Z" fill="white"/>
<path d="M35.9501 1588.49L23.6901 1585.2L39.2301 1600.74L35.9501 1588.49Z" fill="white"/>
<path d="M87.4076 1597.46L100.326 1610.38L109.123 1601.58L96.204 1588.66L87.4076 1597.46Z" fill="white"/>
<path d="M87.41 1588.49L84.1301 1600.74L99.6701 1585.2L87.41 1588.49Z" fill="white"/>
<path d="M14.2309 1523.92L27.1497 1536.84L35.9462 1528.04L23.0273 1515.13L14.2309 1523.92Z" fill="white"/>
<path d="M35.9501 1537.02L39.2301 1524.77L23.6901 1540.31L35.9501 1537.02Z" fill="white"/>
</g>
<defs>
<clipPath id="clip0_2_20">
<rect width="2065.36" height="122.02" fill="white" transform="translate(0.670052 2065.69) rotate(-90)"/>
</clipPath>
</defs>
</svg>
