<svg id="Logo" xmlns="http://www.w3.org/2000/svg" xmlns:xlink="http://www.w3.org/1999/xlink" viewBox="0 0 2065.36 122.02"><defs><style>.cls-1{fill:none;}.cls-2{clip-path:url(#clip-path);}.cls-3{fill:#fff;}</style><clipPath id="clip-path"><rect class="cls-1" width="2065.36" height="122.02"/></clipPath></defs><g class="cls-2"><path class="cls-3" d="M1960,97.81h18.84V70.86l86.49-46.66h-23.83L1976.15,60c-3.4,1.66-5.22,2.9-6.13,4.25h-.45c-.91-1.35-3-2.59-6.13-4.25l-64.7-35.77h-23.61L1960,70.86ZM1868.1,24.2H1694.67v7.26h77.41V97.81h18.61V31.46h77.41ZM1669.25,97.81V24.2h-18.61V97.81ZM1468.13,31.46H1551c29.73,0,39,6.84,39,13.89,0,7.26-10,14.52-39.27,14.52h-82.63Zm124.4,66.35h23.15L1566.2,66c31.55-2.18,43.13-11.83,43.13-20.54,0-10.16-13.17-21.25-55.62-21.25H1449.29V97.81h18.84V67.12h77ZM1228.42,24.2V64.53c0,20.74,31.33,35.88,88.53,35.88,56.53,0,88.3-15.14,88.3-35.88V24.2h-18.84V64.33c0,16-25.42,28.82-69.46,28.82-44.49,0-69.91-12.86-69.91-28.82V24.2ZM1106.3,100.41c49.26,0,82-8.92,95.34-25.51l-18.84-1.35c-10.67,12.86-36.32,19.7-75.37,19.7-50.62,0-84.21-13.06-84.21-32.35,0-19.69,32-32.14,83.3-32.14,40.18,0,67.2,7.68,75.6,21.36l19.74-.83c-10-17.62-43.81-27.68-94.2-27.68-62.2,0-103.74,15.76-103.74,39.4s39.5,39.4,102.38,39.4M852.06,90.56V63.7H980.77V56.45H852.06v-25H984.62V24.2H833.44V97.81H986.21V90.56Zm-135.75,9.85c52.9,0,80.13-7.57,80.13-22.5,0-12.55-17-18.46-57.43-20.32l-50.16-2.28c-30.87-1.35-42-4.67-42-12.76,0-9,20.89-13.79,58.57-13.79,41.08,0,61.74,6,69.69,18l20-1.86c-10-15.45-37.91-23.33-89.21-23.33-50.16,0-78.31,7.67-78.31,21.46,0,11.72,16.8,18,53.12,19.6l52,2.17c32,1.35,44.49,5.19,44.49,13.79,0,10.06-19.29,14.62-60.61,14.62-44.49,0-69.46-6.74-77.18-20.22l-20.43,1.25c10,17.73,40.86,26.13,97.38,26.13m-524.95-2.6h24.52l65.37-29.75a51.27,51.27,0,0,0,7-3.84h.45A60.73,60.73,0,0,0,296,68l64,29.85h26.1L301.45,59.45,380.68,24.2H355.25L296.69,51.05A70.65,70.65,0,0,0,289,54.79h-.45a82.69,82.69,0,0,0-7.5-3.74L221.78,24.2H196.35l80.14,35.56ZM0,24.2V64.53c0,20.74,31.33,35.88,88.53,35.88,56.52,0,88.3-15.14,88.3-35.88V24.2H158V64.33c0,16-25.42,28.82-69.46,28.82C44,93.15,18.61,80.29,18.61,64.33V24.2Z"/><path class="cls-3" d="M502.94,79.65A18.64,18.64,0,1,1,521.58,61a18.64,18.64,0,0,1-18.64,18.64"/></g><rect class="cls-3" x="545.67" y="54.92" width="18.27" height="12.43"/><polygon class="cls-3" points="539.33 61.01 545.67 72 545.67 50.02 539.33 61.01"/><rect class="cls-3" x="441.93" y="54.66" width="18.27" height="12.43"/><polygon class="cls-3" points="466.55 61.01 460.2 50.02 460.2 72 466.55 61.01"/><rect class="cls-3" x="496.59" y="103.74" width="12.43" height="18.27"/><polygon class="cls-3" points="502.94 97.4 491.95 103.74 513.92 103.74 502.94 97.4"/><rect class="cls-3" x="496.84" width="12.43" height="18.27"/><polygon class="cls-3" points="502.94 24.62 513.92 18.27 491.95 18.27 502.94 24.62"/><rect class="cls-3" x="533.31" y="88.64" width="12.44" height="18.27" transform="translate(88.89 410.14) rotate(-45)"/><polygon class="cls-3" points="528.67 86.74 525.38 99 540.92 83.46 528.67 86.74"/><rect class="cls-3" x="460.13" y="15.1" width="12.44" height="18.27" transform="translate(119.45 336.86) rotate(-45)"/><polygon class="cls-3" points="477.2 35.28 480.49 23.02 464.95 38.56 477.2 35.28"/><rect class="cls-3" x="457.03" y="91.38" width="18.27" height="12.44" transform="translate(67.53 358.21) rotate(-45)"/><polygon class="cls-3" points="477.2 86.74 464.95 83.46 480.49 99 477.2 86.74"/><rect class="cls-3" x="530.57" y="18.2" width="18.27" height="12.44" transform="translate(140.81 388.78) rotate(-45)"/><polygon class="cls-3" points="528.67 35.28 540.92 38.56 525.38 23.02 528.67 35.28"/></svg>