<svg id="Logo" xmlns="http://www.w3.org/2000/svg" viewBox="0 0 223.29 295.69"><path d="M197.15,258.54V221.19h11.12v-98.6H197.21V112H184.74v24.32H172.58V87.19H149.64v49.13h-12V75.08h47.07V99.56h14.09v10.78h13.4V121.6h11.12V221H209.08V258.5h-12Z"/><path d="M74.19,12.39C74.11,17.64,74,22.88,74,28.12q0,70.65,0,141.31v3.37H61.77V146.05H49.71V134.91H11.8v22.92l0-.06c-2.48-.17-4.95-.37-7.44-.5-1.42-.07-2.85,0-4.41,0V122.7H49.46v10.86H61.64V11.71l12.59.72Z"/><path d="M197.11,258.5v37.19H61.75v-3.2q-.11-16.92-.2-33.83l-.08.09H73.92v24.76H185.11v-25h12Z"/><path d="M99.34,12.47l12.34-.8v51h25.59V74.83H111.81v61.49H99.61V133q0-58.53,0-117c0-1.16-.15-2.31-.22-3.48Z"/><path d="M38,208.69H25.61V173.18H37.53v7.44c0,8.34,0,16.69,0,25a27.67,27.67,0,0,0,.38,3.12Z"/><path d="M74.23,12.43V0H95.64l4.74,11.41c-1.35,1.36-1,1-1,1-.33-.15-.66-.46-1-.46q-11.61,0-23.2,0a2.79,2.79,0,0,0-1,.43Z"/><path d="M61.55,258.66H49.77V234h11.7v24.78Z"/><path d="M37.92,208.78H49.41v24.5H37.52c0-5.65-.05-11.24,0-16.83,0-2.59.3-5.17.46-7.76C38,208.69,37.92,208.78,37.92,208.78Z"/><path d="M11.8,157.83,25.21,157V172.8H11.86v-15Z"/></svg>