<svg id="Logo" xmlns="http://www.w3.org/2000/svg" viewBox="0 0 200.3 200.34"><path d="M92.52,133.63C76.68,127.7,66.78,117.1,67,99.78c.18-17,10.09-27.38,25.88-32.61C70,69,50.67,77.41,37.08,96.6a64.3,64.3,0,0,0-4.62,8.13c-3.07,6-9.44,8.5-15.13,5.72s-8-9.66-4.7-15.7A95.43,95.43,0,0,1,50.55,57c39.37-22,102-17.86,134.81,33.46,4.4,6.89,4.44,12.72-.11,19.47-22.51,33.43-54.1,47.94-93.87,45.46a97.37,97.37,0,0,1-48.54-16.16c-1.54-1-3.08-2.06-4.52-3.23a11,11,0,0,1-2.23-15.22,10.84,10.84,0,0,1,15.38-2.6c7.59,5.48,15.69,9.88,24.78,12.18C81.6,131.75,87.09,132.57,92.52,133.63Zm15.21-.1c4.68-.72,9.42-1.18,14-2.21,17.43-3.91,31.82-12.36,41.21-28.15a5.23,5.23,0,0,0,0-6c-10.69-18.8-32.75-29.3-55.76-29.89,16.33,5.29,26.18,15.83,26.13,33C133.29,117.34,123.45,127.78,107.73,133.53Zm3.53-33.65a11.11,11.11,0,1,0-11,11.4A11,11,0,0,0,111.26,99.88Z"/><path d="M22.28,22.28c0,3.87,0,7.31,0,10.75-.11,6.79-4.81,11.64-11.18,11.61s-11-4.88-11-11.73Q0,22.32.05,11.74C.12,4.64,4.7.11,11.86.05S26,0,33,.06c6.8.06,11.63,4.76,11.61,11.15s-4.89,11-11.72,11.07C29.56,22.32,26.21,22.28,22.28,22.28Z"/><path d="M178,22.28c-3.89,0-7.34,0-10.78,0-6.76-.11-11.62-4.84-11.57-11.21S160.48.14,167.08.06c7.17-.08,14.33-.07,21.5,0,6.94.07,11.57,4.62,11.66,11.5q.12,10.76,0,21.51c-.07,6.79-4.81,11.62-11.2,11.58s-10.93-4.91-11-11.77C178,29.53,178,26.19,178,22.28Z"/><path d="M22.28,178.06c3.9,0,7.24,0,10.59,0,6.86.09,11.71,4.65,11.76,11s-4.8,11.14-11.58,11.2c-7.17.07-14.34.09-21.5,0C4.68,200.2.12,195.56.05,188.62,0,181.45,0,174.28.06,167.11c.08-6.59,4.76-11.36,11-11.41s11.1,4.81,11.21,11.57C22.32,170.72,22.28,174.16,22.28,178.06Z"/><path d="M178,178.06c0-4-.05-7.47,0-10.92.12-6.58,4.78-11.39,11-11.44,6.4,0,11.15,4.76,11.22,11.55q.1,10.75,0,21.51c-.08,6.89-4.7,11.45-11.63,11.52q-10.76.12-21.5,0c-6.61-.08-11.38-4.74-11.44-11-.06-6.39,4.78-11.12,11.54-11.23C170.66,178,174.1,178.06,178,178.06Z"/></svg>